<svg width="700" height="498" viewBox="0 0 700 498" fill="none" xmlns="http://www.w3.org/2000/svg">
<rect x="-385" y="128.133" width="877" height="10" transform="rotate(-45 -385 128.133)" fill="#7ECDF9" fill-opacity="0.15"/>
<rect x="-370.858" y="142.275" width="877" height="10" transform="rotate(-45 -370.858 142.275)" fill="#7ECDF9" fill-opacity="0.15"/>
<rect x="-356.716" y="156.417" width="877" height="10" transform="rotate(-45 -356.716 156.417)" fill="#7ECDF9" fill-opacity="0.15"/>
<rect x="-342.574" y="170.559" width="877" height="10" transform="rotate(-45 -342.574 170.559)" fill="#7ECDF9" fill-opacity="0.15"/>
<rect x="-328.432" y="184.701" width="877" height="10" transform="rotate(-45 -328.432 184.701)" fill="#7ECDF9" fill-opacity="0.15"/>
<rect x="-314.29" y="198.843" width="877" height="10" transform="rotate(-45 -314.29 198.843)" fill="#7ECDF9" fill-opacity="0.15"/>
<rect x="-300.147" y="212.985" width="877" height="10" transform="rotate(-45 -300.147 212.985)" fill="#7ECDF9" fill-opacity="0.15"/>
<rect x="-286.005" y="227.128" width="877" height="10" transform="rotate(-45 -286.005 227.128)" fill="#7ECDF9" fill-opacity="0.15"/>
<rect x="-271.863" y="241.27" width="877" height="10" transform="rotate(-45 -271.863 241.27)" fill="#7ECDF9" fill-opacity="0.15"/>
<rect x="-257.721" y="255.412" width="877" height="10" transform="rotate(-45 -257.721 255.412)" fill="#7ECDF9" fill-opacity="0.15"/>
<rect x="-243.579" y="269.554" width="877" height="10" transform="rotate(-45 -243.579 269.554)" fill="#7ECDF9" fill-opacity="0.15"/>
<rect x="-229.437" y="283.696" width="877" height="10" transform="rotate(-45 -229.437 283.696)" fill="#7ECDF9" fill-opacity="0.15"/>
<rect x="-215.294" y="297.838" width="877" height="10" transform="rotate(-45 -215.294 297.838)" fill="#7ECDF9" fill-opacity="0.15"/>
<rect x="-201.152" y="311.98" width="877" height="10" transform="rotate(-45 -201.152 311.98)" fill="#7ECDF9" fill-opacity="0.15"/>
<rect x="-187.01" y="326.122" width="877" height="10" transform="rotate(-45 -187.01 326.122)" fill="#7ECDF9" fill-opacity="0.15"/>
<rect x="-172.868" y="340.265" width="877" height="10" transform="rotate(-45 -172.868 340.265)" fill="#7ECDF9" fill-opacity="0.15"/>
<rect x="-158.726" y="354.407" width="877" height="10" transform="rotate(-45 -158.726 354.407)" fill="#7ECDF9" fill-opacity="0.15"/>
<rect x="-144.583" y="368.549" width="877" height="10" transform="rotate(-45 -144.583 368.549)" fill="#7ECDF9" fill-opacity="0.15"/>
<rect x="-130.441" y="382.691" width="877" height="10" transform="rotate(-45 -130.441 382.691)" fill="#7ECDF9" fill-opacity="0.15"/>
<rect x="-116.299" y="396.833" width="877" height="10" transform="rotate(-45 -116.299 396.833)" fill="#7ECDF9" fill-opacity="0.15"/>
<rect x="-102.157" y="410.975" width="877" height="10" transform="rotate(-45 -102.157 410.975)" fill="#7ECDF9" fill-opacity="0.15"/>
<rect x="-88.0151" y="425.117" width="877" height="10" transform="rotate(-45 -88.0151 425.117)" fill="#7ECDF9" fill-opacity="0.15"/>
<rect x="-73.873" y="439.26" width="877" height="10" transform="rotate(-45 -73.873 439.26)" fill="#7ECDF9" fill-opacity="0.15"/>
<rect x="-59.731" y="453.402" width="877" height="10" transform="rotate(-45 -59.731 453.402)" fill="#7ECDF9" fill-opacity="0.15"/>
<rect x="-45.5889" y="467.544" width="877" height="10" transform="rotate(-45 -45.5889 467.544)" fill="#7ECDF9" fill-opacity="0.15"/>
<rect x="-31.4468" y="481.686" width="877" height="10" transform="rotate(-45 -31.4468 481.686)" fill="#7ECDF9" fill-opacity="0.15"/>
<rect x="-17.3047" y="495.828" width="877" height="10" transform="rotate(-45 -17.3047 495.828)" fill="#7ECDF9" fill-opacity="0.15"/>
<rect x="-3.16211" y="509.97" width="877" height="10" transform="rotate(-45 -3.16211 509.97)" fill="#7ECDF9" fill-opacity="0.15"/>
<rect x="10.98" y="524.112" width="877" height="10" transform="rotate(-45 10.98 524.112)" fill="#7ECDF9" fill-opacity="0.15"/>
<rect x="25.1221" y="538.255" width="877" height="10" transform="rotate(-45 25.1221 538.255)" fill="#7ECDF9" fill-opacity="0.15"/>
<rect x="39.2642" y="552.397" width="877" height="10" transform="rotate(-45 39.2642 552.397)" fill="#7ECDF9" fill-opacity="0.15"/>
<rect x="53.4062" y="566.539" width="877" height="10" transform="rotate(-45 53.4062 566.539)" fill="#7ECDF9" fill-opacity="0.15"/>
<rect x="67.5483" y="580.681" width="877" height="10" transform="rotate(-45 67.5483 580.681)" fill="#7ECDF9" fill-opacity="0.15"/>
<rect x="81.6904" y="594.823" width="877" height="10" transform="rotate(-45 81.6904 594.823)" fill="#7ECDF9" fill-opacity="0.15"/>
<rect x="95.8325" y="608.965" width="877" height="10" transform="rotate(-45 95.8325 608.965)" fill="#7ECDF9" fill-opacity="0.15"/>
<rect x="109.975" y="623.107" width="877" height="10" transform="rotate(-45 109.975 623.107)" fill="#7ECDF9" fill-opacity="0.15"/>
<rect x="124.116" y="637.25" width="877" height="10" transform="rotate(-45 124.116 637.25)" fill="#7ECDF9" fill-opacity="0.15"/>
<rect x="138.259" y="651.392" width="877" height="10" transform="rotate(-45 138.259 651.392)" fill="#7ECDF9" fill-opacity="0.15"/>
<rect x="152.401" y="665.534" width="877" height="10" transform="rotate(-45 152.401 665.534)" fill="#7ECDF9" fill-opacity="0.15"/>
<rect x="166.543" y="679.676" width="877" height="10" transform="rotate(-45 166.543 679.676)" fill="#7ECDF9" fill-opacity="0.15"/>
<rect x="180.686" y="693.818" width="877" height="10" transform="rotate(-45 180.686 693.818)" fill="#7ECDF9" fill-opacity="0.15"/>
<rect x="194.827" y="707.96" width="877" height="10" transform="rotate(-45 194.827 707.96)" fill="#7ECDF9" fill-opacity="0.15"/>
<rect x="208.97" y="722.102" width="877" height="10" transform="rotate(-45 208.97 722.102)" fill="#7ECDF9" fill-opacity="0.15"/>
<rect x="223.111" y="736.244" width="877" height="10" transform="rotate(-45 223.111 736.244)" fill="#7ECDF9" fill-opacity="0.15"/>
<rect x="237.254" y="750.387" width="877" height="10" transform="rotate(-45 237.254 750.387)" fill="#7ECDF9" fill-opacity="0.15"/>
<rect x="251.396" y="764.529" width="877" height="10" transform="rotate(-45 251.396 764.529)" fill="#7ECDF9" fill-opacity="0.15"/>
<rect x="265.538" y="778.671" width="877" height="10" transform="rotate(-45 265.538 778.671)" fill="#7ECDF9" fill-opacity="0.15"/>
<rect x="279.681" y="792.813" width="877" height="10" transform="rotate(-45 279.681 792.813)" fill="#7ECDF9" fill-opacity="0.15"/>
<rect x="293.822" y="806.955" width="877" height="10" transform="rotate(-45 293.822 806.955)" fill="#7ECDF9" fill-opacity="0.15"/>
<rect x="307.965" y="821.097" width="877" height="10" transform="rotate(-45 307.965 821.097)" fill="#7ECDF9" fill-opacity="0.15"/>
<rect x="322.106" y="835.239" width="877" height="10" transform="rotate(-45 322.106 835.239)" fill="#7ECDF9" fill-opacity="0.15"/>
<rect x="336.249" y="849.381" width="877" height="10" transform="rotate(-45 336.249 849.381)" fill="#7ECDF9" fill-opacity="0.15"/>
<rect x="350.391" y="863.524" width="877" height="10" transform="rotate(-45 350.391 863.524)" fill="#7ECDF9" fill-opacity="0.15"/>
<rect x="364.533" y="877.666" width="877" height="10" transform="rotate(-45 364.533 877.666)" fill="#7ECDF9" fill-opacity="0.15"/>
<rect x="378.675" y="891.808" width="877" height="10" transform="rotate(-45 378.675 891.808)" fill="#7ECDF9" fill-opacity="0.15"/>
<rect x="392.817" y="905.95" width="877" height="10" transform="rotate(-45 392.817 905.95)" fill="#7ECDF9" fill-opacity="0.15"/>
<rect x="406.959" y="920.092" width="877" height="10" transform="rotate(-45 406.959 920.092)" fill="#7ECDF9" fill-opacity="0.15"/>
<rect x="421.102" y="934.234" width="877" height="10" transform="rotate(-45 421.102 934.234)" fill="#7ECDF9" fill-opacity="0.15"/>
<rect x="435.244" y="948.376" width="877" height="10" transform="rotate(-45 435.244 948.376)" fill="#7ECDF9" fill-opacity="0.15"/>
<rect x="449.386" y="962.519" width="877" height="10" transform="rotate(-45 449.386 962.519)" fill="#7ECDF9" fill-opacity="0.15"/>
<rect x="463.528" y="976.661" width="877" height="10" transform="rotate(-45 463.528 976.661)" fill="#7ECDF9" fill-opacity="0.15"/>
<rect x="477.67" y="990.803" width="877" height="10" transform="rotate(-45 477.67 990.803)" fill="#7ECDF9" fill-opacity="0.15"/>
<rect x="491.812" y="1004.94" width="877" height="10" transform="rotate(-45 491.812 1004.94)" fill="#7ECDF9" fill-opacity="0.15"/>
<rect x="505.954" y="1019.09" width="877" height="10" transform="rotate(-45 505.954 1019.09)" fill="#7ECDF9" fill-opacity="0.15"/>
<rect x="489.025" y="-510" width="877" height="10" transform="rotate(45 489.025 -510)" fill="#7ECDF9" fill-opacity="0.15"/>
<rect x="474.883" y="-495.858" width="877" height="10" transform="rotate(45 474.883 -495.858)" fill="#7ECDF9" fill-opacity="0.15"/>
<rect x="460.741" y="-481.716" width="877" height="10" transform="rotate(45 460.741 -481.716)" fill="#7ECDF9" fill-opacity="0.15"/>
<rect x="446.599" y="-467.574" width="877" height="10" transform="rotate(45 446.599 -467.574)" fill="#7ECDF9" fill-opacity="0.15"/>
<rect x="432.457" y="-453.432" width="877" height="10" transform="rotate(45 432.457 -453.432)" fill="#7ECDF9" fill-opacity="0.15"/>
<rect x="418.314" y="-439.289" width="877" height="10" transform="rotate(45 418.314 -439.289)" fill="#7ECDF9" fill-opacity="0.15"/>
<rect x="404.173" y="-425.147" width="877" height="10" transform="rotate(45 404.173 -425.147)" fill="#7ECDF9" fill-opacity="0.15"/>
<rect x="390.03" y="-411.005" width="877" height="10" transform="rotate(45 390.03 -411.005)" fill="#7ECDF9" fill-opacity="0.15"/>
<rect x="375.889" y="-396.863" width="877" height="10" transform="rotate(45 375.889 -396.863)" fill="#7ECDF9" fill-opacity="0.15"/>
<rect x="361.746" y="-382.721" width="877" height="10" transform="rotate(45 361.746 -382.721)" fill="#7ECDF9" fill-opacity="0.15"/>
<rect x="347.604" y="-368.579" width="877" height="10" transform="rotate(45 347.604 -368.579)" fill="#7ECDF9" fill-opacity="0.15"/>
<rect x="333.462" y="-354.437" width="877" height="10" transform="rotate(45 333.462 -354.437)" fill="#7ECDF9" fill-opacity="0.15"/>
<rect x="319.319" y="-340.294" width="877" height="10" transform="rotate(45 319.319 -340.294)" fill="#7ECDF9" fill-opacity="0.15"/>
<rect x="305.178" y="-326.152" width="877" height="10" transform="rotate(45 305.178 -326.152)" fill="#7ECDF9" fill-opacity="0.15"/>
<rect x="291.035" y="-312.01" width="877" height="10" transform="rotate(45 291.035 -312.01)" fill="#7ECDF9" fill-opacity="0.15"/>
<rect x="276.894" y="-297.868" width="877" height="10" transform="rotate(45 276.894 -297.868)" fill="#7ECDF9" fill-opacity="0.15"/>
<rect x="262.751" y="-283.726" width="877" height="10" transform="rotate(45 262.751 -283.726)" fill="#7ECDF9" fill-opacity="0.15"/>
<rect x="248.609" y="-269.584" width="877" height="10" transform="rotate(45 248.609 -269.584)" fill="#7ECDF9" fill-opacity="0.15"/>
<rect x="234.467" y="-255.442" width="877" height="10" transform="rotate(45 234.467 -255.442)" fill="#7ECDF9" fill-opacity="0.15"/>
<rect x="220.325" y="-241.299" width="877" height="10" transform="rotate(45 220.325 -241.299)" fill="#7ECDF9" fill-opacity="0.15"/>
<rect x="206.183" y="-227.157" width="877" height="10" transform="rotate(45 206.183 -227.157)" fill="#7ECDF9" fill-opacity="0.15"/>
<rect x="192.041" y="-213.015" width="877" height="10" transform="rotate(45 192.041 -213.015)" fill="#7ECDF9" fill-opacity="0.15"/>
<rect x="177.898" y="-198.873" width="877" height="10" transform="rotate(45 177.898 -198.873)" fill="#7ECDF9" fill-opacity="0.15"/>
<rect x="163.756" y="-184.731" width="877" height="10" transform="rotate(45 163.756 -184.731)" fill="#7ECDF9" fill-opacity="0.15"/>
<rect x="149.614" y="-170.589" width="877" height="10" transform="rotate(45 149.614 -170.589)" fill="#7ECDF9" fill-opacity="0.15"/>
<rect x="135.472" y="-156.447" width="877" height="10" transform="rotate(45 135.472 -156.447)" fill="#7ECDF9" fill-opacity="0.15"/>
<rect x="121.33" y="-142.305" width="877" height="10" transform="rotate(45 121.33 -142.305)" fill="#7ECDF9" fill-opacity="0.15"/>
<rect x="107.188" y="-128.162" width="877" height="10" transform="rotate(45 107.188 -128.162)" fill="#7ECDF9" fill-opacity="0.15"/>
<rect x="93.0459" y="-114.02" width="877" height="10" transform="rotate(45 93.0459 -114.02)" fill="#7ECDF9" fill-opacity="0.15"/>
<rect x="78.9038" y="-99.8781" width="877" height="10" transform="rotate(45 78.9038 -99.8781)" fill="#7ECDF9" fill-opacity="0.15"/>
<rect x="64.7617" y="-85.736" width="877" height="10" transform="rotate(45 64.7617 -85.736)" fill="#7ECDF9" fill-opacity="0.15"/>
<rect x="50.6191" y="-71.5938" width="877" height="10" transform="rotate(45 50.6191 -71.5938)" fill="#7ECDF9" fill-opacity="0.15"/>
<rect x="36.4771" y="-57.4517" width="877" height="10" transform="rotate(45 36.4771 -57.4517)" fill="#7ECDF9" fill-opacity="0.15"/>
<rect x="22.335" y="-43.3096" width="877" height="10" transform="rotate(45 22.335 -43.3096)" fill="#7ECDF9" fill-opacity="0.15"/>
<rect x="8.19287" y="-29.1675" width="877" height="10" transform="rotate(45 8.19287 -29.1675)" fill="#7ECDF9" fill-opacity="0.15"/>
<rect x="-5.94922" y="-15.0254" width="877" height="10" transform="rotate(45 -5.94922 -15.0254)" fill="#7ECDF9" fill-opacity="0.15"/>
<rect x="-20.0913" y="-0.88324" width="877" height="10" transform="rotate(45 -20.0913 -0.88324)" fill="#7ECDF9" fill-opacity="0.15"/>
<rect x="-34.2334" y="13.2589" width="877" height="10" transform="rotate(45 -34.2334 13.2589)" fill="#7ECDF9" fill-opacity="0.15"/>
<rect x="-48.3755" y="27.4012" width="877" height="10" transform="rotate(45 -48.3755 27.4012)" fill="#7ECDF9" fill-opacity="0.15"/>
<rect x="-62.5176" y="41.5433" width="877" height="10" transform="rotate(45 -62.5176 41.5433)" fill="#7ECDF9" fill-opacity="0.15"/>
<rect x="-76.6597" y="55.6854" width="877" height="10" transform="rotate(45 -76.6597 55.6854)" fill="#7ECDF9" fill-opacity="0.15"/>
<rect x="-90.8022" y="69.8276" width="877" height="10" transform="rotate(45 -90.8022 69.8276)" fill="#7ECDF9" fill-opacity="0.15"/>
<rect x="-104.944" y="83.9697" width="877" height="10" transform="rotate(45 -104.944 83.9697)" fill="#7ECDF9" fill-opacity="0.15"/>
<rect x="-119.086" y="98.1118" width="877" height="10" transform="rotate(45 -119.086 98.1118)" fill="#7ECDF9" fill-opacity="0.15"/>
<rect x="-133.229" y="112.254" width="877" height="10" transform="rotate(45 -133.229 112.254)" fill="#7ECDF9" fill-opacity="0.15"/>
<rect x="-147.371" y="126.396" width="877" height="10" transform="rotate(45 -147.371 126.396)" fill="#7ECDF9" fill-opacity="0.15"/>
<rect x="-161.513" y="140.538" width="877" height="10" transform="rotate(45 -161.513 140.538)" fill="#7ECDF9" fill-opacity="0.15"/>
<rect x="-175.655" y="154.68" width="877" height="10" transform="rotate(45 -175.655 154.68)" fill="#7ECDF9" fill-opacity="0.15"/>
<rect x="-189.797" y="168.822" width="877" height="10" transform="rotate(45 -189.797 168.822)" fill="#7ECDF9" fill-opacity="0.15"/>
<rect x="-203.939" y="182.965" width="877" height="10" transform="rotate(45 -203.939 182.965)" fill="#7ECDF9" fill-opacity="0.15"/>
<rect x="-218.081" y="197.107" width="877" height="10" transform="rotate(45 -218.081 197.107)" fill="#7ECDF9" fill-opacity="0.15"/>
<rect x="-232.223" y="211.249" width="877" height="10" transform="rotate(45 -232.223 211.249)" fill="#7ECDF9" fill-opacity="0.15"/>
<rect x="-246.366" y="225.391" width="877" height="10" transform="rotate(45 -246.366 225.391)" fill="#7ECDF9" fill-opacity="0.15"/>
<rect x="-260.508" y="239.533" width="877" height="10" transform="rotate(45 -260.508 239.533)" fill="#7ECDF9" fill-opacity="0.15"/>
<rect x="-274.65" y="253.675" width="877" height="10" transform="rotate(45 -274.65 253.675)" fill="#7ECDF9" fill-opacity="0.15"/>
<rect x="-288.792" y="267.817" width="877" height="10" transform="rotate(45 -288.792 267.817)" fill="#7ECDF9" fill-opacity="0.15"/>
<rect x="-302.934" y="281.959" width="877" height="10" transform="rotate(45 -302.934 281.959)" fill="#7ECDF9" fill-opacity="0.15"/>
<rect x="-317.076" y="296.102" width="877" height="10" transform="rotate(45 -317.076 296.102)" fill="#7ECDF9" fill-opacity="0.15"/>
<rect x="-331.218" y="310.244" width="877" height="10" transform="rotate(45 -331.218 310.244)" fill="#7ECDF9" fill-opacity="0.15"/>
<rect x="-345.36" y="324.386" width="877" height="10" transform="rotate(45 -345.36 324.386)" fill="#7ECDF9" fill-opacity="0.15"/>
<rect x="-359.502" y="338.528" width="877" height="10" transform="rotate(45 -359.502 338.528)" fill="#7ECDF9" fill-opacity="0.15"/>
<rect x="-373.645" y="352.67" width="877" height="10" transform="rotate(45 -373.645 352.67)" fill="#7ECDF9" fill-opacity="0.15"/>
<rect x="-387.787" y="366.812" width="877" height="10" transform="rotate(45 -387.787 366.812)" fill="#7ECDF9" fill-opacity="0.15"/>
<rect x="-401.929" y="380.954" width="877" height="10" transform="rotate(45 -401.929 380.954)" fill="#7ECDF9" fill-opacity="0.15"/>
</svg>
